<svg width="1080" height="360" viewBox="0 0 1080 360" fill="none" xmlns="http://www.w3.org/2000/svg">
  
  <defs>
    <radialGradient id="glowA-compact" cx="22%" cy="18%" r="55%">
      <stop stop-color="#00d68f" stop-opacity="0.28"/>
      <stop offset="1" stop-color="#00d68f" stop-opacity="0"/>
    </radialGradient>
    <radialGradient id="glowB-compact" cx="78%" cy="78%" r="55%">
      <stop stop-color="#4b8eff" stop-opacity="0.26"/>
      <stop offset="1" stop-color="#4b8eff" stop-opacity="0"/>
    </radialGradient>
    <linearGradient id="panel-compact" x1="0" y1="0" x2="1" y2="1">
      <stop stop-color="#02050b"/>
      <stop offset="0.55" stop-color="#050913"/>
      <stop offset="1" stop-color="#07152b"/>
    </linearGradient>
    <pattern id="grid-compact" width="86" height="86" patternUnits="userSpaceOnUse">
      <path d="M86 0H0V86" fill="none" stroke="rgba(255,255,255,0.055)" stroke-width="1"/>
    </pattern>
  </defs>

  <rect width="1080" height="360" fill="url(#panel-compact)"/>
  <rect width="1080" height="360" fill="url(#glowA-compact)"/>
  <rect width="1080" height="360" fill="url(#glowB-compact)"/>
  <rect width="1080" height="360" fill="url(#grid-compact)" opacity="0.55"/>
  <path d="M -80 122.4 C 194.4 79.2, 367.20000000000005 172.79999999999998, 561.6 129.6 S 842.4 64.8, 1160 108" stroke="#00d68f" stroke-opacity="0.18" stroke-width="2"/>
  <path d="M -90 259.2 C 237.6 201.60000000000002, 453.59999999999997 302.4, 712.8000000000001 244.8 S 950.4 187.20000000000002, 1170 223.2" stroke="#4b8eff" stroke-opacity="0.12" stroke-width="2"/>
  
    
  <g transform="translate(70 72) scale(1.3125)">
    <defs>
      <linearGradient id="markGradient-70-72" x1="18" y1="18" x2="142" y2="142" gradientUnits="userSpaceOnUse">
        <stop stop-color="#00d68f"/>
        <stop offset="1" stop-color="#4b8eff"/>
      </linearGradient>
    </defs>
    <path d="M80 10 140 45v70l-60 35-60-35V45L80 10Z" fill="#06101f" stroke="url(#markGradient-70-72)" stroke-width="7" stroke-linejoin="round"/>
    <path d="M48 111V49l64 62V49" stroke="#f7fbff" stroke-width="11" stroke-linecap="round" stroke-linejoin="round"/>
    <path d="M46 116h68" stroke="#00d68f" stroke-width="8" stroke-linecap="round"/>
  </g>

    
  <text x="320" y="159" fill="#f7fbff" font-family="Inter, Arial, sans-serif" font-size="58" font-weight="900" letter-spacing="-2">
    NexusBot<tspan dx="12" fill="#00d68f">Pro</tspan>
  </text>

    <text x="322" y="214" fill="#a8b5c8" font-family="Inter, Arial, sans-serif" font-size="24" font-weight="700">Crypto automation command center</text>
  
</svg>