<svg width="1920" height="384" viewBox="0 0 1920 384" fill="none" xmlns="http://www.w3.org/2000/svg">
  
  <defs>
    <radialGradient id="glowA-redditwide" cx="22%" cy="18%" r="55%">
      <stop stop-color="#00d68f" stop-opacity="0.28"/>
      <stop offset="1" stop-color="#00d68f" stop-opacity="0"/>
    </radialGradient>
    <radialGradient id="glowB-redditwide" cx="78%" cy="78%" r="55%">
      <stop stop-color="#4b8eff" stop-opacity="0.26"/>
      <stop offset="1" stop-color="#4b8eff" stop-opacity="0"/>
    </radialGradient>
    <linearGradient id="panel-redditwide" x1="0" y1="0" x2="1" y2="1">
      <stop stop-color="#02050b"/>
      <stop offset="0.55" stop-color="#050913"/>
      <stop offset="1" stop-color="#07152b"/>
    </linearGradient>
    <pattern id="grid-redditwide" width="86" height="86" patternUnits="userSpaceOnUse">
      <path d="M86 0H0V86" fill="none" stroke="rgba(255,255,255,0.055)" stroke-width="1"/>
    </pattern>
  </defs>

  <rect width="1920" height="384" fill="url(#panel-redditwide)"/>
  <rect width="1920" height="384" fill="url(#glowA-redditwide)"/>
  <rect width="1920" height="384" fill="url(#glowB-redditwide)"/>
  <rect width="1920" height="384" fill="url(#grid-redditwide)" opacity="0.55"/>
  <path d="M -80 130.56 C 345.59999999999997 84.48, 652.8000000000001 184.32, 998.4000000000001 138.24 S 1497.6000000000001 69.12, 2000 115.19999999999999" stroke="#00d68f" stroke-opacity="0.18" stroke-width="2"/>
  <path d="M -90 276.48 C 422.4 215.04000000000002, 806.4 322.56, 1267.2 261.12 S 1689.6 199.68, 2010 238.07999999999998" stroke="#4b8eff" stroke-opacity="0.12" stroke-width="2"/>
  
    
  <g transform="translate(80 86) scale(1.3125)">
    <defs>
      <linearGradient id="markGradient-80-86" x1="18" y1="18" x2="142" y2="142" gradientUnits="userSpaceOnUse">
        <stop stop-color="#00d68f"/>
        <stop offset="1" stop-color="#4b8eff"/>
      </linearGradient>
    </defs>
    <path d="M80 10 140 45v70l-60 35-60-35V45L80 10Z" fill="#06101f" stroke="url(#markGradient-80-86)" stroke-width="7" stroke-linejoin="round"/>
    <path d="M48 111V49l64 62V49" stroke="#f7fbff" stroke-width="11" stroke-linecap="round" stroke-linejoin="round"/>
    <path d="M46 116h68" stroke="#00d68f" stroke-width="8" stroke-linecap="round"/>
  </g>

    
  <text x="330" y="174" fill="#f7fbff" font-family="Inter, Arial, sans-serif" font-size="74" font-weight="900" letter-spacing="-2">
    NexusBot<tspan dx="12" fill="#00d68f">Pro</tspan>
  </text>

    <text x="332" y="238" fill="#a8b5c8" font-family="Inter, Arial, sans-serif" font-size="28" font-weight="700">Automated trading workflows with visible risk controls.</text>
    <rect x="1370" y="116" width="360" height="90" rx="26" fill="rgba(0,214,143,0.14)" stroke="rgba(0,214,143,0.48)"/>
    <text x="1432" y="173" fill="#00d68f" font-family="Inter, Arial, sans-serif" font-size="25" font-weight="900" letter-spacing="1">NEXUSBOT PRO</text>
  
</svg>