<svg width="1500" height="500" viewBox="0 0 1500 500" fill="none" xmlns="http://www.w3.org/2000/svg">
  
  <defs>
    <radialGradient id="glowA-xheader" cx="22%" cy="18%" r="55%">
      <stop stop-color="#00d68f" stop-opacity="0.28"/>
      <stop offset="1" stop-color="#00d68f" stop-opacity="0"/>
    </radialGradient>
    <radialGradient id="glowB-xheader" cx="78%" cy="78%" r="55%">
      <stop stop-color="#4b8eff" stop-opacity="0.26"/>
      <stop offset="1" stop-color="#4b8eff" stop-opacity="0"/>
    </radialGradient>
    <linearGradient id="panel-xheader" x1="0" y1="0" x2="1" y2="1">
      <stop stop-color="#02050b"/>
      <stop offset="0.55" stop-color="#050913"/>
      <stop offset="1" stop-color="#07152b"/>
    </linearGradient>
    <pattern id="grid-xheader" width="86" height="86" patternUnits="userSpaceOnUse">
      <path d="M86 0H0V86" fill="none" stroke="rgba(255,255,255,0.055)" stroke-width="1"/>
    </pattern>
  </defs>

  <rect width="1500" height="500" fill="url(#panel-xheader)"/>
  <rect width="1500" height="500" fill="url(#glowA-xheader)"/>
  <rect width="1500" height="500" fill="url(#glowB-xheader)"/>
  <rect width="1500" height="500" fill="url(#grid-xheader)" opacity="0.55"/>
  <path d="M -80 170 C 270 110, 510.00000000000006 240, 780 180 S 1170 90, 1580 150" stroke="#00d68f" stroke-opacity="0.18" stroke-width="2"/>
  <path d="M -90 360 C 330 280, 630 420, 990 340 S 1320 260, 1590 310" stroke="#4b8eff" stroke-opacity="0.12" stroke-width="2"/>
  
    
  <g transform="translate(86 136) scale(1.375)">
    <defs>
      <linearGradient id="markGradient-86-136" x1="18" y1="18" x2="142" y2="142" gradientUnits="userSpaceOnUse">
        <stop stop-color="#00d68f"/>
        <stop offset="1" stop-color="#4b8eff"/>
      </linearGradient>
    </defs>
    <path d="M80 10 140 45v70l-60 35-60-35V45L80 10Z" fill="#06101f" stroke="url(#markGradient-86-136)" stroke-width="7" stroke-linejoin="round"/>
    <path d="M48 111V49l64 62V49" stroke="#f7fbff" stroke-width="11" stroke-linecap="round" stroke-linejoin="round"/>
    <path d="M46 116h68" stroke="#00d68f" stroke-width="8" stroke-linecap="round"/>
  </g>

    
  <text x="348" y="215" fill="#f7fbff" font-family="Inter, Arial, sans-serif" font-size="78" font-weight="900" letter-spacing="-2">
    NexusBot<tspan dx="12" fill="#00d68f">Pro</tspan>
  </text>

    <text x="350" y="284" fill="#a8b5c8" font-family="Inter, Arial, sans-serif" font-size="29" font-weight="700">Automated crypto trading dashboard</text>
    <text x="350" y="338" fill="#00d68f" font-family="JetBrains Mono, Menlo, monospace" font-size="18" font-weight="800" letter-spacing="3">RSI · MACD · EMA · BINANCE · BYBIT</text>
    
  <g transform="translate(1036 92)">
    <rect width="346" height="258" rx="28" fill="rgba(5,10,20,0.78)" stroke="rgba(0,214,143,0.36)"/>
    <rect x="34" y="34" width="278" height="54" rx="13" fill="rgba(255,255,255,0.045)"/>
    <path d="M 48 159.96 C 69.2 129, 117.64000000000001 185.76, 173 139.32000000000002 S 262.96 87.72000000000001, 294 67.08" stroke="#00d68f" stroke-width="8" stroke-linecap="round"/>
    <rect x="57" y="108.36" width="26" height="58" rx="6" fill="#00d68f"/><rect x="77.6" y="154.79999999999998" width="26" height="111" rx="6" fill="#00d68f"/><rect x="98.2" y="152.22" width="26" height="80" rx="6" fill="#ff4d63"/><rect x="118.80000000000001" y="149.64" width="26" height="133" rx="6" fill="#00d68f"/><rect x="139.4" y="147.05999999999997" width="26" height="102" rx="6" fill="#00d68f"/><rect x="160" y="144.48000000000002" width="26" height="71" rx="6" fill="#00d68f"/><rect x="180.60000000000002" y="141.9" width="26" height="124" rx="6" fill="#00d68f"/><rect x="201.20000000000002" y="139.32000000000002" width="26" height="93" rx="6" fill="#ff4d63"/><rect x="221.8" y="136.74" width="26" height="62" rx="6" fill="#00d68f"/><rect x="242.4" y="134.16" width="26" height="115" rx="6" fill="#00d68f"/><rect x="263" y="131.58" width="26" height="84" rx="6" fill="#00d68f"/>
    <rect x="34" y="140" width="96.88000000000001" height="54" rx="12" fill="rgba(0,214,143,0.14)" stroke="rgba(0,214,143,0.4)"/>
    <rect x="124.56" y="140" width="86.5" height="54" rx="12" fill="rgba(75,142,255,0.14)" stroke="rgba(75,142,255,0.4)"/>
    <rect x="235.28000000000003" y="140" width="76.12" height="54" rx="12" fill="rgba(0,214,143,0.14)" stroke="rgba(0,214,143,0.4)"/>
  </g>

  
</svg>