<svg width="2560" height="1440" viewBox="0 0 2560 1440" fill="none" xmlns="http://www.w3.org/2000/svg">
  
  <defs>
    <radialGradient id="glowA-youtube" cx="22%" cy="18%" r="55%">
      <stop stop-color="#00d68f" stop-opacity="0.28"/>
      <stop offset="1" stop-color="#00d68f" stop-opacity="0"/>
    </radialGradient>
    <radialGradient id="glowB-youtube" cx="78%" cy="78%" r="55%">
      <stop stop-color="#4b8eff" stop-opacity="0.26"/>
      <stop offset="1" stop-color="#4b8eff" stop-opacity="0"/>
    </radialGradient>
    <linearGradient id="panel-youtube" x1="0" y1="0" x2="1" y2="1">
      <stop stop-color="#02050b"/>
      <stop offset="0.55" stop-color="#050913"/>
      <stop offset="1" stop-color="#07152b"/>
    </linearGradient>
    <pattern id="grid-youtube" width="86" height="86" patternUnits="userSpaceOnUse">
      <path d="M86 0H0V86" fill="none" stroke="rgba(255,255,255,0.055)" stroke-width="1"/>
    </pattern>
  </defs>

  <rect width="2560" height="1440" fill="url(#panel-youtube)"/>
  <rect width="2560" height="1440" fill="url(#glowA-youtube)"/>
  <rect width="2560" height="1440" fill="url(#glowB-youtube)"/>
  <rect width="2560" height="1440" fill="url(#grid-youtube)" opacity="0.55"/>
  <path d="M -80 489.6 C 460.79999999999995 316.8, 870.4000000000001 691.1999999999999, 1331.2 518.4 S 1996.8000000000002 259.2, 2640 432" stroke="#00d68f" stroke-opacity="0.18" stroke-width="2"/>
  <path d="M -90 1036.8 C 563.2 806.4000000000001, 1075.2 1209.6, 1689.6000000000001 979.2 S 2252.8 748.8000000000001, 2650 892.8" stroke="#4b8eff" stroke-opacity="0.12" stroke-width="2"/>
  
    <rect x="507" y="423" width="1546" height="594" rx="38" fill="rgba(3,8,18,0.72)" stroke="rgba(255,255,255,0.1)"/>
    
  <g transform="translate(690 600) scale(1.1875)">
    <defs>
      <linearGradient id="markGradient-690-600" x1="18" y1="18" x2="142" y2="142" gradientUnits="userSpaceOnUse">
        <stop stop-color="#00d68f"/>
        <stop offset="1" stop-color="#4b8eff"/>
      </linearGradient>
    </defs>
    <path d="M80 10 140 45v70l-60 35-60-35V45L80 10Z" fill="#06101f" stroke="url(#markGradient-690-600)" stroke-width="7" stroke-linejoin="round"/>
    <path d="M48 111V49l64 62V49" stroke="#f7fbff" stroke-width="11" stroke-linecap="round" stroke-linejoin="round"/>
    <path d="M46 116h68" stroke="#00d68f" stroke-width="8" stroke-linecap="round"/>
  </g>

    
  <text x="930" y="682" fill="#f7fbff" font-family="Inter, Arial, sans-serif" font-size="96" font-weight="900" letter-spacing="-2">
    NexusBot<tspan dx="12" fill="#00d68f">Pro</tspan>
  </text>

    <text x="932" y="760" fill="#a8b5c8" font-family="Inter, Arial, sans-serif" font-size="39" font-weight="700">Automated crypto trading platform</text>
    <text x="932" y="828" fill="#00d68f" font-family="JetBrains Mono, Menlo, monospace" font-size="28" font-weight="800" letter-spacing="4">24/7 SIGNALS · RISK CONTROLS · LIVE DASHBOARD</text>
    <rect x="1654" y="623" width="222" height="78" rx="24" fill="rgba(0,214,143,0.13)" stroke="rgba(0,214,143,0.44)"/>
    <circle cx="1692" cy="662" r="8" fill="#00d68f"/>
    <text x="1715" y="672" fill="#00d68f" font-family="Inter, Arial, sans-serif" font-size="24" font-weight="900" letter-spacing="1">BOT ACTIVE</text>
  
</svg>